<?xml version="1.0" standalone="no"?>
<!DOCTYPE svg PUBLIC "-//W3C//DTD SVG 1.1//EN" "http://www.w3.org/Graphics/SVG/1.1/DTD/svg11.dtd" >
<!--
2013-9-30: Created.
-->
<svg>
<metadata>
Created by iconfont
</metadata>
<defs>

<font id="iconfont" horiz-adv-x="1024" >
  <font-face
    font-family="iconfont"
    font-weight="500"
    font-stretch="normal"
    units-per-em="1024"
    ascent="896"
    descent="-128"
  />
    <missing-glyph />
    
    <glyph glyph-name="gonggao" unicode="&#59388;" d="M1185.792 452.529231h-237.804308a48.836923 48.836923 0 0 1-48.836923-48.994462v-15.36a48.836923 48.836923 0 0 1 48.836923-48.994461h237.883077a48.836923 48.836923 0 0 1 48.758154 48.994461v15.36a48.836923 48.836923 0 0 1-48.836923 48.994462zM634.092308 872.763077c-73.964308-58.683077-228.745846-141.154462-340.125539-220.317539H293.809231c-1.260308-0.787692-2.599385-5.198769-3.780923-5.986461-13.154462-7.404308-19.219692-27.648-90.742154-27.648H59.864615c-35.918769 0-58.131692-16.856615-58.131692-54.508308v-335.872c0-37.809231 20.48-56.556308 58.052923-56.556307h140.209231c71.128615 0 76.878769-20.401231 90.033231-27.648 1.181538-0.787692 2.363077-5.277538 3.780923-5.828924l0.157538-0.157538c107.913846-79.163077 263.640615-167.936 340.125539-224.334769 22.921846-17.014154 99.564308-46.788923 99.564307 58.210461V819.2c0 104.920615-77.193846 71.443692-99.564307 53.563077z m219.608615-231.502769c12.681846-22.291692 37.651692-27.805538 55.926154-12.524308l195.426461 164.627692c18.353231 15.36 22.843077 45.922462 10.161231 68.214154l-7.089231 12.603077c-12.603077 22.291692-37.651692 27.726769-55.926153 12.445539l-195.505231-164.548924c-18.274462-15.438769-22.843077-45.843692-10.082462-68.135384l7.089231-12.603077z m251.352615-643.859693L909.627077 161.870769c-18.274462 15.36-43.323077 9.846154-55.926154-12.288l-7.089231-12.603077c-12.681846-22.291692-8.034462-52.775385 10.082462-68.135384l195.505231-164.470154c18.274462-15.517538 43.165538-9.846154 55.926153 12.366769l7.089231 12.603077c12.681846 22.055385 8.034462 52.617846-10.161231 68.056615z"  horiz-adv-x="1260" />

    
    <glyph glyph-name="iconicon-tishi" unicode="&#58938;" d="M512 832C262.4 832 64 633.6 64 384s198.4-448 448-448 448 198.4 448 448-198.4 448-448 448z m51.2-716.8c0-32-19.2-51.2-51.2-51.2s-51.2 19.2-51.2 51.2V409.6c0 32 19.2 51.2 51.2 51.2s51.2-19.2 51.2-51.2v-294.4z m25.6 486.4c0-44.8-38.4-76.8-76.8-76.8s-76.8 32-76.8 76.8 32 83.2 76.8 83.2 76.8-38.4 76.8-83.2z"  horiz-adv-x="1024" />

    
    <glyph glyph-name="yichu" unicode="&#58934;" d="M512 870.83365925c-268.93918673 0-486.83365925-218.03587062-486.83365925-486.83365925S243.06081327-102.83365924999998 512-102.83365924999998 998.83365925 115.06081327000004 998.83365925 384 780.93918673 870.83365925 512 870.83365925zM849.94145966 384c0-23.47208465-18.94734543-42.41943008-42.41943007-42.41943008H216.47797041c-23.47208465 0-42.41943008 18.94734543-42.41943007 42.41943008s18.94734543 42.41943008 42.41943007 42.41943008h591.04405918c23.47208465 0 42.41943008-18.94734543 42.41943007-42.41943008z"  horiz-adv-x="1024" />

    
    <glyph glyph-name="xinzeng" unicode="&#59295;" d="M457.272117 331.026919H52.790289A54.179507 54.179507 0 0 0 0 384.036558c0 28.223063 24.640343 52.936523 52.790289 52.936523h404.481828V843.063477c0 28.223063 24.640343 52.936523 52.790289 52.936523 28.149946 0 52.790289-24.713459 52.790289-52.936523v-406.090396h407.991432c28.149946 0 52.790289-24.713459 52.790289-52.936523a54.179507 54.179507 0 0 0-52.790289-53.009639h-407.991432v-409.526883c0-24.713459-24.640343-49.500036-52.790289-49.500036a54.179507 54.179507 0 0 0-52.790289 53.009639V331.026919z"  horiz-adv-x="1024" />

    
    <glyph glyph-name="shuaxin" unicode="&#59296;" d="M885.838769 431.025231a402.668308 402.668308 0 0 1-403.219692 385.339077 404.086154 404.086154 0 0 1-403.613539-403.613539 404.086154 404.086154 0 0 1 403.613539-403.613538c85.858462 0 167.857231 26.624 237.095385 76.878769l46.316307-63.724308a478.916923 478.916923 0 0 0-283.411692-91.923692 480.728615 480.728615 0 0 0-341.070769 141.312 480.728615 480.728615 0 0 0-141.312 341.070769 480.728615 480.728615 0 0 0 141.312 341.070769A480.728615 480.728615 0 0 0 482.619077 895.212308c125.085538 0 243.633231-47.655385 333.902769-134.22277a479.940923 479.940923 0 0 0 148.086154-326.419692l-78.769231-3.465846 78.769231 3.465846a488.369231 488.369231 0 0 0 0.393846-22.843077l70.419692 70.340923a39.384615 39.384615 0 1 0 55.689847-55.689846l-144.541539-144.541538a39.227077 39.227077 0 0 0-43.559384-8.349539 39.227077 39.227077 0 0 0-20.48 10.870154L738.067692 428.819692a39.384615 39.384615 0 0 0 55.689846 55.768616l92.081231-92.16z"  horiz-adv-x="1103" />

    
    <glyph glyph-name="bianji" unicode="&#59294;" d="M456.85131 387.949641L901.91733 832.94252a38.033579 38.033579 0 0 0 55.14869 0 38.033579 38.033579 0 0 0 0-55.075549L515.949641 328.85131a38.033579 38.033579 0 0 0-55.14869 0 39.642692 39.642692 0 0 0-3.949641 59.098331zM827.093577-127.990492H196.906423A194.995236 194.995236 0 0 0 0.009509 68.906423V699.093577A194.995236 194.995236 0 0 0 196.906423 895.990492h354.443704c23.697846 0 39.423268-15.725422 39.423267-39.350127 0-23.697846-15.725422-39.423268-39.423267-39.423268H196.906423c-66.924471 0-118.123521-51.199049-118.12352-118.12352v-630.187154c0-66.924471 51.199049-118.123521 118.12352-118.12352h630.187154c66.924471 0 118.123521 51.199049 118.123521 118.12352V423.350126c0 23.697846 15.725422 39.423268 39.423267 39.423268 23.624704 0 39.350126-15.725422 39.350127-39.423268v-354.443703A194.995236 194.995236 0 0 0 827.093577-127.990492z"  horiz-adv-x="1024" />

    
    <glyph glyph-name="xiansuo" unicode="&#59292;" d="M456.128 675.136a173.76 173.76 0 0 0 177.024-176.96 171.84 171.84 0 0 0-118.016-165.12v-129.792H397.184V332.992a171.84 171.84 0 0 0-117.952 165.184 173.76 173.76 0 0 0 176.896 176.96zM455.104 896a456.512 456.512 0 0 0 455.168-455.104A455.104 455.104 0 1 0 455.04 896z m0-796.48a342.4 342.4 0 0 1 341.376 341.376 341.312 341.312 0 1 1-341.376-341.376z m415.296 45.568l153.6-153.6L898.88-128l-147.968 147.904a623.36 623.36 0 0 1 119.488 125.184z"  horiz-adv-x="1024" />

    
    <glyph glyph-name="huodong" unicode="&#59293;" d="M630.72 696.96c10.176-24.96 36.16-106.24 36.16-141.312 0-120.896-46.336-236.16-127.68-316.352-7.936-7.936-22.592-18.112-37.312-27.136-25.984-16.96-53.12-29.376-83.584-37.248l28.224-79.104h-87.04l-10.112-36.16c-1.152-4.48 0-7.936 3.392-11.328 22.592-22.592 25.984-56.512 10.176-83.584l-41.792-70.08a32 32 0 0 0-41.856-11.264 29.952 29.952 0 0 0-12.416 40.64l41.792 70.08a13.888 13.888 0 0 1-1.088 14.72c-18.112 18.048-23.744 42.88-18.112 66.56l5.632 22.656H221.696l28.224 79.104c-68.928 18.048-131.072 62.08-176.256 123.136a377.664 377.664 0 0 0-54.208 106.24 412.48 412.48 0 0 0-19.2 123.136c0 202.24 150.272 366.08 333.312 366.08a308.48 308.48 0 0 0 183.04-59.84 343.232 343.232 0 0 0 114.112-139.008z m40.704 3.328c19.2 4.48 40.64 6.784 60.992 6.784 157.056 1.152 283.584-137.856 284.8-308.48v-2.24c0-73.472-23.808-145.792-67.84-201.152a284.032 284.032 0 0 0-158.208-103.936l13.568-37.312h-37.312l-3.392-12.416c18.112-19.2 21.504-46.336 7.936-68.928l-30.528-48.576a32 32 0 0 0-41.792-11.264 29.952 29.952 0 0 0-12.416 40.64l29.376 48.64a56.96 56.96 0 0 0-14.72 53.12h-42.88l13.504 37.248a252.608 252.608 0 0 0-94.912 44.032 345.728 345.728 0 0 0-51.968 47.488c47.488 20.352 141.248 150.272 162.688 255.36 7.936 39.552 19.2 115.2 9.088 179.648-7.936 38.4-19.2 65.536-25.984 81.344z m90.368-488.128c3.392 0 7.936 0 11.328 2.24a148.8 148.8 0 0 1 90.368 97.216 26.624 26.624 0 0 1-3.392 22.592 32.256 32.256 0 0 1-42.88 10.176 33.088 33.088 0 0 1-14.72-18.112 83.072 83.072 0 0 0-53.12-56.448c-15.808-6.784-23.68-23.744-16.96-38.4a35.84 35.84 0 0 1 29.376-19.2zM166.336 519.488c14.72 0 27.072 10.24 30.464 23.744 14.72 70.08 63.36 127.68 131.072 158.208a29.76 29.76 0 0 1 15.872 39.552c-6.784 14.72-25.984 21.44-41.856 14.72-84.736-38.464-145.728-111.936-164.928-200.064a31.808 31.808 0 0 1 4.48-22.592c4.544-9.024 14.72-13.568 24.896-13.568z"  horiz-adv-x="1024" />

    
    <glyph glyph-name="fou" unicode="&#59290;" d="M987.940571-99.693714a92.233143 92.233143 0 0 0-130.925714 0L27.940571 736.329143a93.988571 93.988571 0 0 0 0 131.949714 92.16 92.16 0 0 0 131.072 0l828.854858-835.876571c35.986286-36.571429 36.205714-95.670857 0-132.096z m-0.950857 836.461714L157.988571-99.108571c-36.132571-36.571429-94.646857-36.571429-130.925714 0a93.988571 93.988571 0 0 0 0.146286 131.949714L856.064 868.644571a92.013714 92.013714 0 0 0 130.852571 0.146286c36.205714-36.498286 35.986286-95.597714 0.073143-132.022857z"  horiz-adv-x="1024" />

    
    <glyph glyph-name="shi" unicode="&#59291;" d="M329.48736-94.573714L32.381074 220.891429a124.050286 124.050286 0 0 0-1.462857 165.522285 102.253714 102.253714 0 0 0 152.722286 1.682286l210.578286-223.670857L886.982217 850.797714c36.571429 50.980571 104.594286 60.269714 151.625143 20.48 47.104-39.643429 55.588571-113.152 18.944-164.205714L490.474789-82.651429A106.057143 106.057143 0 0 0 405.26336-128a104.009143 104.009143 0 0 0-75.702857 33.353143z"  horiz-adv-x="1097" />

    
    <glyph glyph-name="icon-quanxian1" unicode="&#59236;" d="M867.474286 740.937143L514.925714 871.643429 159.451429 740.937143a49.517714 49.517714 0 0 1-42.422858-48.786286v-469.577143c0-29.257143 65.316571-110.665143 123.830858-166.253714 78.555429-71.68 257.462857-156.525714 267.264-159.963429h6.290285c6.363429 3.437714 189.220571 88.283429 267.264 159.963429 58.514286 55.588571 123.830857 136.996571 123.830857 166.253714v469.577143c4.388571 22.966857-15.140571 45.860571-38.034285 48.786286zM651.922286 285.476571c0-21.430857-17.554286-38.985143-38.985143-38.985142h-61.952v-98.962286c0-21.504-17.554286-39.058286-38.985143-39.058286a39.131429 39.131429 0 0 0-38.985143 39.058286v235.52a127.268571 127.268571 0 0 0-87.771428 120.393143c0 70.217143 56.539429 126.829714 126.756571 126.829714 70.217143 0 126.756571-56.612571 126.756571-126.829714 0-56.539429-37.010286-104.301714-87.771428-120.393143v-58.514286h61.952c21.430857 0 38.985143-17.554286 38.985143-39.058286z"  horiz-adv-x="1024" />

    
    <glyph glyph-name="icon-xuanzhong" unicode="&#59235;" d="M1024 896v-819.2a204.8 204.8 0 0 0-204.8-204.8H0L1024 896z m-150.186667-621.226667l-47.786666 47.786667-194.56-191.146667-92.16 88.746667-47.786667-47.786667 139.946667-136.533333 242.346666 238.933333z"  horiz-adv-x="1024" />

    
    <glyph glyph-name="icon-dianhua" unicode="&#59232;" d="M91.75464298 685.94196405s-37.00446405-188.63839297 241.67410702-467.61830311l6.02678595-5.84598202 5.78571405-6.02678595c278.73883905-278.91964297 467.25669607-241.85491095 467.25669607-241.85491095 11.51116095 1.50669608 35.73883905 8.4375 43.99553596 16.69419691 0 0 42.85044608 35.25669608 69.12723202 78.70982107 26.27678594 43.453125-23.38392892 109.08482107-51.95089297 137.65178594-57.67633905 57.67633905-110.71205392 68.94642892-134.03571405 52.91517811-10.48660702-7.23214297-52.25223202-52.19196406-52.25223203-52.19196405a59.96651798 59.96651798 0 0 0-36.10044607-15.24776797s-72.92410702-0.72321406-208.46651798 132.890625C309.381875 451.68080393 310.10508906 524.66517893 310.10508906 524.66517893a60.14732108 60.14732108 0 0 0 15.18749999 36.16071405s51.70982108 51.70982108 52.1316969 52.25223202c19.64732108 24.58928595-12.83705393 85.640625-52.85491095 134.15625C298.835 778.39285702 277.98232107 796.65401797 238.98901798 804.06696405 187.09839297 814.01116095 93.68321405 744.6428570200001 91.81491095 685.94196405z"  horiz-adv-x="1024" />

    
    <glyph glyph-name="icon-Appdengluzhanghao" unicode="&#59233;" d="M503.33858281 469.09561347v-75.42182285h21.5973c29.24634463 0 43.86951651 12.71091094 43.86951651 38.18897667 0 24.85939219-14.45444297 37.23284619-43.41957276 37.23284619h-22.04724375z m290.38245206 97.86276651V777.7570303699999c0 31.04611963-25.14060703 56.18672666-56.24296964 56.18672666H288.04049492c-30.98987666 0-56.18672666-25.14060703-56.18672666-56.18672666v-210.68616445H127.01687276v-351.23734512h104.78065253v-224.74690664a56.24296963 56.24296963 0 0 1 56.24296963-56.18672666h449.49381328a56.24296963 56.24296963 0 0 1 56.18672667 56.24296963V215.77727783h103.76827909V567.01462295H793.77727783z m-56.18672667 196.68166523v-196.62542226H288.04049492V763.5838022400001h449.49381328zM621.22384708 433.77502822c0-23.90326172-8.77390312-43.08211494-26.32171026-57.53655791-17.60404922-14.45444297-39.53880791-21.37232812-65.91676026-20.80989932h-25.64679375v-81.43981962h-49.77502822V507.73453301h80.42744619c58.15523057 0 87.17660333-24.63442031 87.17660332-73.95950478z m-360.51743497-106.18672676l-17.21034932-53.59955009h-53.99325087l85.48931425 233.74578164h58.60517432L417.51181074 273.98875137000005h-54.33070869l-17.49156328 53.59955009h-84.92688369z m252.08098945-364.62317167a28.12148438 28.12148438 0 1 0 0 56.24296963 28.12148438 28.12148438 0 0 0 0-56.24296963z m224.74690664 84.25196807H287.98425195V215.77727783h449.55005625v-168.56017997z m53.99325088 329.02137245c-17.54780625-14.45444297-39.53880791-21.37232812-65.91676025-20.80989932h-25.64679463v-81.43981962h-49.77502822V507.73453301h80.42744707c58.15523057 0 87.17660333-24.63442031 87.17660244-73.95950478 0-23.90326172-8.71766016-43.08211494-26.32170937-57.53655792z m-69.51631025 92.85714317h-22.04724463v-75.42182286h21.59730088c29.24634463 0 43.86951651 12.71091094 43.8695165 38.18897667 0 24.85939219-14.45444297 37.23284619-43.41957275 37.23284619z m-418.27896563-1.68728994h-1.40607422c-0.56242969-6.74915625-1.91226094-13.38582656-4.04949375-19.68503907l-26.71541015-81.6647915h62.31721025l-26.54668213 80.98987588a89.42632207 89.42632207 0 0 0-3.59955 20.41619766z"  horiz-adv-x="1024" />

    
    <glyph glyph-name="icon-xueyuanbianma" unicode="&#59234;" d="M927.125 730.89375c22.66875-22.33125 34.3125-50.2875 34.93125-83.8125V56.0625c-0.5625-33.58125-12.2625-61.65-34.9875-84.375-22.66875-22.66875-50.79375-34.3125-84.31875-34.9875H186.425c-33.525 0.61875-61.70625 12.31875-84.375 34.9875-22.66875 22.725-34.3125 50.79375-34.93125 84.375V646.96875c0.5625 33.58125 12.2625 61.48125 34.9875 83.86875 22.66875 22.3875 50.79375 34.14375 84.375 35.4375h136.96875V700.125c0.61875-18 6.1875-32.2875 16.81875-42.8625 10.575-10.575 24.75-16.14375 42.8625-16.7625h262.85625c18 0.5625 32.2875 6.1875 42.8625 16.7625 10.575 10.575 16.2 24.80625 16.7625 42.8625V766.275h137.08125c33.58125-1.18125 61.70625-12.99375 84.375-35.38125z m-227.475-631.125a31.8375 31.8375 0 0 1 6.075 28.0125c-9.3375 27.3375-23.45625 48.9375-42.4125 64.74375a102.6 102.6 0 0 1-64.8 24.75h-12.15c-24.1875-11.8125-48.09375-17.775-71.775-17.775-23.625 0-47.53125 5.90625-71.775 17.71875h-12.15c-24.1875-0.5625-46.4625-8.83125-66.7125-24.69375-20.1375-15.75-33.75-37.40625-40.5-64.74375-2.5875-12.375-0.5625-22.5 6.01875-30.2625a30.0375 30.0375 0 0 1 23.79375-11.7h322.5375a31.725 31.725 0 0 1 23.85 14.00625z m-53.60625 672.13125v-65.25H389.65625v65.25c0 18 5.2875 32.45625 15.8625 43.3125 10.575 10.85625 25.14375 16.3125 43.875 16.3125h130.5c18.5625 0 33.1875-5.45625 43.7625-16.3125 10.575-10.85625 15.8625-25.25625 15.8625-43.3125h6.525zM425.09375 465.225c-23.00625-24.1875-34.875-53.15625-35.4375-86.68125 0.5625-34.14375 12.9375-63.39375 37.2375-87.6375 24.3-24.1875 53.4375-36.95625 87.6375-38.25a125.4375 125.4375 0 0 1 87.58125 35.8875c24.1875 23.23125 36.73125 53.26875 37.29375 89.94375a124.81875 124.81875 0 0 1-35.4375 86.625c-22.95 24.1875-52.875 36.95625-89.4375 38.25-36.61875-1.18125-66.4875-13.89375-89.4375-38.1375z"  horiz-adv-x="1024" />

    
    <glyph glyph-name="nan" unicode="&#58937;" d="M665.2 799.2c-25.6 0-46.4-20.8-46.4-46.4s20.8-46.4 46.4-46.4l117.2 0L566.2 486.8c-50.3 35.9-112 57.3-179.1 57.3-168.2 0-304.5-133.4-304.5-298s136.3-298 304.5-298c168.2 0 304.5 133.4 304.5 298 0 65.8-22.1 126.5-59.1 175.8l215.9 219.3 0-119c0-25.6 20.8-46.4 46.4-46.4s46.4 20.8 46.4 46.4L941.2 799.2 665.2 799.2zM387.2 41c-116.7 0-211.7 92-211.7 205.2 0 113.1 95 205.2 211.7 205.2s211.7-92 211.7-205.2C598.9 133.1 503.9 41 387.2 41z"  horiz-adv-x="1024" />

    
    <glyph glyph-name="nv" unicode="&#58951;" d="M870.69952 742.69952c-66.10688 66.10944-154.00448 102.51776-247.49696 102.51904-93.49248 0-181.3888-36.40832-247.49696-102.51648-66.11072-66.10944-102.51648-154.00576-102.51648-247.49952-0.00128-76.19968 24.19072-148.6784 68.93056-208.67584l-60.2048-60.20352L138.18496 370.05312c-19.99488 19.99488-52.41216 19.99488-72.40704 0-19.99488-19.9936-19.99488-52.41216 0-72.40704l143.72992-143.72992-55.75552-55.75552c-19.9936-19.9936-19.9936-52.41216 0-72.40576 19.99616-19.99616 52.41344-19.99488 72.40832 0l55.75424 55.75424 143.7312-143.72992c19.9936-19.99488 52.41088-19.99488 72.40576 0 19.99616 19.99488 19.99616 52.41216 0 72.40704L354.32192 153.91488l60.2048 60.20352c59.99872-44.73856 132.47616-68.93184 208.67584-68.93184 93.49248 0 181.38752 36.40832 247.49696 102.51776s102.51776 154.00576 102.51776 247.49824C973.21728 588.69504 936.80768 676.59264 870.69952 742.69952zM798.29248 320.11264c-46.76736-46.76736-108.94976-72.5248-175.08992-72.5248s-128.32128 25.75744-175.08992 72.5248c-46.76864 46.76736-72.5248 108.94976-72.5248 175.08992 0.00128 66.14272 25.75616 128.32384 72.5248 175.0912 46.76736 46.76864 108.94976 72.5248 175.08992 72.5248 66.14016-0.00128 128.32256-25.75744 175.08992-72.52608 46.76736-46.76736 72.5248-108.94848 72.5248-175.08864C870.81728 429.0624 845.0624 366.88128 798.29248 320.11264z"  horiz-adv-x="1024" />

    
    <glyph glyph-name="kecheng" unicode="&#59231;" d="M899.456 574.848v-526.72c-0.576-31.488-11.52-57.856-32.832-79.168s-47.68-32.256-79.168-32.832h-560c-31.488 0.576-57.92 11.52-79.168 32.832-21.312 21.312-32.256 47.68-32.832 79.168v672c0.576 31.488 11.52 57.856 32.832 79.168s47.68 32.256 79.168 32.832h672v-140.032H316.736c-16.896-0.576-31.232-6.72-42.88-18.368-11.648-11.648-17.472-26.112-17.472-43.328 0-17.216 5.824-31.68 17.472-43.328 11.648-11.648 25.92-17.792 42.88-18.368h314.112v-229.248c2.944-0.576 5.696-1.344 8.32-2.176s5.376-0.128 8.32 2.176l67.392 49.856c5.824 2.944 11.2 4.352 16.192 4.352 4.928 0 8.896-1.472 11.84-4.352l67.392-49.856h5.248c2.944 0 5.568 1.152 7.872 3.52 2.304 2.304 3.52 4.928 3.52 7.872v224h72.512z"  horiz-adv-x="1024" />

    
    <glyph glyph-name="banji" unicode="&#59230;" d="M748.352 686.848v-123.392h67.392c31.488-1.152 57.856-12.224 79.168-33.28 21.312-20.992 32.256-47.232 32.832-78.72v-370.112c-0.576-31.488-11.52-57.728-32.832-78.72-21.312-20.992-47.68-32.064-79.168-33.28H199.744c-31.488 1.152-57.92 12.224-79.168 33.28-21.312 20.992-32.256 47.232-32.832 78.72V456.704c0.576 31.488 11.52 57.856 32.832 79.168s47.68 32.256 79.168 32.832h67.392V686.848H143.744c-16.896 0-30.464 4.928-40.704 14.848-10.24 9.92-15.296 23.616-15.296 41.152v5.248c0 16.896 5.12 30.464 15.296 40.704 10.176 10.176 23.744 15.296 40.704 15.296h728c16.896 0 30.464-5.12 40.704-15.296 10.176-10.24 15.296-23.744 15.296-40.704v-5.248c0-17.472-5.12-31.232-15.296-41.152-10.24-9.92-23.744-14.848-40.704-14.848h-123.392z m-61.248-419.968c-0.576 16.896-5.824 30.336-15.744 40.256-9.92 9.92-23.36 15.168-40.256 15.744H384.384c-16.896-0.576-30.336-5.824-40.256-15.744-9.92-9.92-15.168-23.36-15.744-40.256v-6.144c0.576-16.896 5.824-30.336 15.744-40.256 9.92-9.92 23.296-15.168 40.256-15.744h246.72c16.896 0.576 30.336 5.824 40.256 15.744 9.92 9.92 15.168 23.296 15.744 40.256v6.144z m-56 296.576V686.848h-240.64v-123.392h240.64z"  horiz-adv-x="1024" />

    
    <glyph glyph-name="zhanghuguanli" unicode="&#58891;" d="M734.9 699.7H447.4l90.9 90.5c29.3 29 76.5 29 105.7 0l90.9-90.5zM736 383.6h224V551c0 41.1-33.4 74.4-74.7 74.4H138.7C97.4 625.3 64 592 64 551v-520.6c0-41.1 33.4-74.4 74.7-74.4h746.7c41.2 0 74.7 33.3 74.7 74.4V197.7H736c-51.3 0-93.3 41.8-93.3 93 0 51.1 42 92.9 93.3 92.9zM689.3 291a46.7 46.5 0 1 1 93.4 0 46.7 46.5 0 1 1-93.4 0Z"  horiz-adv-x="1024" />

    
    <glyph glyph-name="youhuiquan" unicode="&#59009;" d="M929.1915063 306.32770332999996c-51.78153074 25.89076594-67.31598962 46.60337778-67.31599076 88.02860259 0 38.83614777 15.53445888 59.54876075 67.31599076 88.02860259 28.47984185 18.12353593 31.0689189 33.65799481 31.0689189 59.54876075v147.57736335c0 46.60337778-38.83614777 85.43952555-85.43952669 85.43952554H139.52315999c-46.60337778 0-85.43952555-38.83614777-85.43952554-85.43952554v-147.57736335c0-23.30168889 2.58907705-44.01430073 31.06891889-59.54876075 20.71261184-10.35630592 67.31598962-36.24707186 67.31598962-88.02860259 0-56.9596837-33.65799481-75.08321963-64.72691371-85.43952555h-2.58907591c-28.47984185-18.12353593-31.0689189-46.60337778-31.06891889-59.54876074v-147.57736334c0-46.60337778 38.83614777-85.43952555 85.43952554-85.43952555h735.29773852c46.60337778 0 85.43952555 38.83614777 85.43952669 85.43952555v147.57736334c0 28.47984185-10.35630592 38.83614777-31.0689189 56.9596837z m-284.79841963 51.78153073c15.53445888 0 28.47984185-12.94538297 28.47984186-28.47984185s-12.94538297-28.47984185-28.47984186-28.47984184h-108.74121557v-108.74121444c0-15.53445888-12.94538297-28.47984185-28.47984185-28.47984185s-28.47984185 12.94538297-28.47984184 28.47984185v108.74121444h-108.74121445c-15.53445888 0-28.47984185 12.94538297-28.47984184 28.47984184s12.94538297 28.47984185 28.47984184 28.47984185h108.74121445v67.31599076h-116.50844445c-15.53445888 0-28.47984185 12.94538297-28.47984185 28.47984185s12.94538297 28.47984185 28.47984185 28.47984184h85.43952669l-90.61767965 90.61767965c-10.35630592 10.35630592-10.35630592 28.47984185 0 38.83614777 10.35630592 10.35630592 28.47984185 10.35630592 38.83614776 0l111.33029149-111.33029148 111.33029149 111.33029148c10.35630592 10.35630592 28.47984185 10.35630592 38.83614891 0 10.35630592-10.35630592 10.35630592-28.47984185 0-38.83614777l-90.61767965-90.61767965h82.85044963c15.53445888 0 28.47984185-12.94538297 28.47984186-28.47984184s-12.94538297-28.47984185-28.47984186-28.47984185h-116.50844444v-67.31599076h111.33029148z"  horiz-adv-x="1024" />

    
    <glyph glyph-name="erweima" unicode="&#59229;" d="M192 512l128 0L320 640 192 640 192 512zM64-64l384 0L448 320 64 320 64-64zM128 256l256 0 0-256L128 0 128 256zM192 64l128 0 0 128L192 192 192 64zM512 768l0-384 384 0L896 768 512 768zM832 448 576 448 576 704l256 0L832 448zM832 192l-128 0L704 320 576 320 512 320l0-128 0-256 64 0 0 256 64 0 0-64 192 0 64 0L896 320l-64 0L832 192zM64 384l384 0L448 768 64 768 64 384zM128 704l256 0 0-256L128 448 128 704zM768 640l-128 0 0-128 128 0L768 640zM832-64l64 0 0 128-64 0L832-64zM704-64l64 0 0 128-64 0L704-64z"  horiz-adv-x="1024" />

    
    <glyph glyph-name="icon-baobiao" unicode="&#59195;" d="M1024 201.142857v585.142857c0 20.114286-16.457143 36.571429-36.571429 36.571429h-438.857142V896h-73.142858v-73.142857h-438.857142c-20.114286 0-36.571429-16.457143-36.571429-36.571429v-585.142857c0-20.114286 16.457143-36.571429 36.571429-36.571428h438.857142v-57.563429l-174.665142-102.4 36.571428-64.073143 164.571429 96.036572h21.942857l164.571428-96.036572 36.571429 64.073143-176.420571 102.4V164.571429h438.857142c20.114286 0 36.571429 16.457143 36.571429 36.571428zM830.171429 676.571429l47.542857-55.808-362.057143-309.028572-186.514286 157.257143-135.314286-113.371429-46.592 55.808 182.857143 152.722286 186.514286-157.257143L830.171429 676.571429z"  horiz-adv-x="1024" />

    
    <glyph glyph-name="icon_riqi" unicode="&#59196;" d="M73.142857 530.285714v-585.142857h877.714286V749.714286h-146.285714v-73.142857h-73.142858V749.714286H292.571429v-73.142857H219.428571V749.714286H73.142857v-146.285715h877.714286v-73.142857H73.142857z m219.428572 292.571429h438.857142V896h73.142858v-73.142857h219.428571v-950.857143H0V822.857143h219.428571V896h73.142858v-73.142857zM219.428571 384h146.285715v-73.142857H219.428571V384z m0-219.428571h146.285715v-73.142858H219.428571v73.142858z m219.428572 219.428571h146.285714v-73.142857H438.857143V384z m0-219.428571h146.285714v-73.142858H438.857143v73.142858z m219.428571 219.428571h146.285715v-73.142857H658.285714V384z m0-219.428571h146.285715v-73.142858H658.285714v73.142858z"  horiz-adv-x="1024" />

    
    <glyph glyph-name="icon-caiwu" unicode="&#59197;" d="M380.781714 638.171429h247.954286c76.8 0 135.753143 165.302857 135.753143 165.302857 0 49.517714-4.827429 86.674286-90.404572 89.673143C589.019429 896 568.100571 834.194286 506.88 834.194286c-63.122286 0-94.061714 48.274286-171.446857 58.953143C258.048 903.753143 245.028571 853.065143 245.028571 803.401143c0 0 58.88-165.229714 135.68-165.229714h0.073143z m261.851429-51.346286H380.928c-289.718857 0-361.179429-564.662857-361.179429-564.662857 0-74.386286 60.708571-148.699429 135.68-148.699429h713.289143c74.971429 0 135.606857 74.459429 135.606857 148.699429-0.731429 0-71.972571 564.662857-361.691428 564.662857z m29.696-434.249143a31.232 31.232 0 1 0 1.462857-62.537143H543.963429v-82.651428a31.524571 31.524571 0 0 0-63.122286 0v82.651428H351.670857a31.232 31.232 0 1 0-1.462857 62.537143h130.486857v39.497143H351.670857a31.232 31.232 0 1 0-1.462857 62.537143h88.868571L349.257143 412.818286a31.670857 31.670857 0 0 0 54.710857 31.890285l107.666286-188.854857h5.412571L624.64 444.708571a31.963429 31.963429 0 0 0 43.373714 11.190858 31.378286 31.378286 0 0 0 11.337143-43.008v-0.073143L590.262857 255.195429H672.182857a31.232 31.232 0 1 0 1.462857-62.537143H543.744v-39.497143h128.512l0.073143-0.585143z"  horiz-adv-x="1024" />

    
    <glyph glyph-name="icon-dingdan" unicode="&#59198;" d="M861.632 799.936h-153.472A72.576 72.576 0 0 1 638.08 855.488H561.92a63.104 63.104 0 0 1-59.2 39.936 63.104 63.104 0 0 1-59.2-39.936H366.208c-33.856 0-62.848-24.128-70.08-55.552H142.656c-39.872 0-70.08-32.64-70.08-72.512V-53.12c0-39.872 31.36-72.512 70.08-72.512h717.76c39.872 0 73.664 32.64 73.664 72.512V727.424c1.28 39.872-32.64 72.512-72.448 72.512z m-357.696-35.072a57.984 57.984 0 1 0 0-115.968 57.984 57.984 0 0 0 0 115.968z m221.12-600.512a26.816 26.816 0 0 0-26.56-26.56h-389.12a26.816 26.816 0 0 0-26.56 26.56v24.192c0 14.464 12.096 26.56 26.56 26.56h389.12c14.464 0 26.56-12.096 26.56-26.56v-24.192z m0 245.312a26.816 26.816 0 0 0-26.56-26.624h-389.12a26.816 26.816 0 0 0-26.56 26.624v24.128c0 14.528 12.096 26.624 26.56 26.624h389.12c14.464 0 26.56-12.096 26.56-26.624v-24.128z"  horiz-adv-x="1024" />

    
    <glyph glyph-name="icon-gouwuche" unicode="&#59199;" d="M1017.30944 687.744c-9.344 11.456-23.296 16-38.016 16H505.18144c-26.944 0-48.832-16-48.832-42.944 0-27.008 21.888-43.008 48.832-43.008h424.576l-82.688-408H353.50144l-23.04 161.024h345.28a48.576 48.576 0 1 1 0 96.96H316.63744L263.96544 836.224C260.44544 860.288 239.83744 875.776 215.58144 875.776H53.02144a48.576 48.576 0 1 1 0-96.96H184.02944l89.6-615.616c3.456-24 24.064-39.424 48.32-39.424h553.984c23.104 0 43.072 14.464 47.808 37.056l103.36 487.04a46.784 46.784 0 0 1-9.856 39.872zM309.59744 63.296a85.568 85.568 0 1 1 0-171.136 85.568 85.568 0 0 1 0 171.136z m501.056 0a85.568 85.568 0 1 1 0-171.136 85.568 85.568 0 0 1 0 171.136z"  horiz-adv-x="1028" />

    
    <glyph glyph-name="icon-cuowu" unicode="&#59200;" d="M1000.820364 37.981091l-348.485819 348.439273 348.485819 348.485818L861.416727 874.263273l-348.439272-348.485818L164.491636 874.263273 25.134545 734.906182l348.439273-348.485818L25.134545 37.981091l139.357091-139.403636 348.485819 348.485818 348.439272-348.485818z"  horiz-adv-x="1024" />

    
    <glyph glyph-name="icon-jian" unicode="&#59201;" d="M809.23333328 774.15v-758.7h4554V774.15z"  horiz-adv-x="6144" />

    
    <glyph glyph-name="icon-jinggao-xiao" unicode="&#59202;" d="M512 896a512 512 0 1 1 0-1024A512 512 0 0 1 512 896z m68.169143-804.205714H443.904V208.384h136.265143v-116.589714z m0 212.772571H443.904V676.205714h136.265143v-371.638857z"  horiz-adv-x="1024" />

    
    <glyph glyph-name="icon-jinggao" unicode="&#59203;" d="M512 179.2a68.266667 68.266667 0 0 1 68.266667 68.266667V827.733333a68.266667 68.266667 0 1 1-136.533334 0v-580.266666a68.266667 68.266667 0 0 1 68.266667-68.266667z m0-102.4a102.4 102.4 0 1 1 0-204.8 102.4 102.4 0 0 1 0 204.8z"  horiz-adv-x="1024" />

    
    <glyph glyph-name="icon-quanxian" unicode="&#59204;" d="M867.474286 740.937143L514.925714 871.643429 159.451429 740.937143a49.517714 49.517714 0 0 1-42.422858-48.786286v-469.577143c0-29.257143 65.316571-110.665143 123.830858-166.253714 78.555429-71.68 257.462857-156.525714 267.264-159.963429h6.290285c6.363429 3.437714 189.220571 88.283429 267.264 159.963429 58.514286 55.588571 123.830857 136.996571 123.830857 166.253714v469.577143c4.388571 22.966857-15.140571 45.860571-38.034285 48.786286zM651.922286 285.476571c0-21.430857-17.554286-38.985143-38.985143-38.985142h-61.952v-98.962286c0-21.504-17.554286-39.058286-38.985143-39.058286a39.131429 39.131429 0 0 0-38.985143 39.058286v235.52a127.268571 127.268571 0 0 0-87.771428 120.393143c0 70.217143 56.539429 126.829714 126.756571 126.829714 70.217143 0 126.756571-56.612571 126.756571-126.829714 0-56.539429-37.010286-104.301714-87.771428-120.393143v-58.514286h61.952c21.430857 0 38.985143-17.554286 38.985143-39.058286z"  horiz-adv-x="1024" />

    
    <glyph glyph-name="icon-guanbi" unicode="&#59205;" d="M1013.761298-67.591501L562.233362 383.936435 1013.84662 835.46437a35.494259 35.494259 0 0 1-50.084447 50.084448L512.148915 434.020882 60.620979 885.548818a35.494259 35.494259 0 0 1-50.084448-50.084448L462.064467 383.936435 10.451209-67.591501a35.494259 35.494259 0 0 1 50.084448-50.084448L512.148915 333.851987l451.527935-451.527936c13.822284-13.822284 36.347487-13.651638 50.084448 0a35.494259 35.494259 0 0 1 0 50.084448z"  horiz-adv-x="1024" />

    
    <glyph glyph-name="icon-sanjiao" unicode="&#59206;" d="M758.33333333-66l675 900H83.33333333z"  horiz-adv-x="1536" />

    
    <glyph glyph-name="icon-shanchu-cu" unicode="&#59207;" d="M309.799385 768.236308l59.470769 118.941538A15.990154 15.990154 0 0 0 383.448615 896h235.756308c6.065231 0 11.579077-3.465846 14.257231-8.822154l59.470769-118.941538h175.655385c8.822154 0 15.990154-7.089231 15.990154-15.990154v-95.783385c0-8.822154-7.089231-15.990154-15.990154-15.990154H134.144A15.990154 15.990154 0 0 0 118.153846 656.541538V752.246154c0 8.822154 7.089231 15.990154 15.990154 15.990154h175.655385zM198.025846 576.748308h606.680616c8.822154 0 15.990154-7.089231 15.990153-15.990154v-622.513231a63.803077 63.803077 0 0 0-63.881846-63.881846H245.996308a63.803077 63.803077 0 0 0-63.803077 63.803077V560.836923a15.753846 15.753846 0 0 0 15.832615 15.990154z m175.497846-223.547077v-255.369846a31.901538 31.901538 0 0 1 63.803077 0V353.28a31.901538 31.901538 0 0 1-63.803077 0z m191.645539 0v-255.369846a31.901538 31.901538 0 0 1 63.803077 0V353.28a31.901538 31.901538 0 0 1-63.803077 0z"  horiz-adv-x="1024" />

    
    <glyph glyph-name="icon-jia" unicode="&#59208;" d="M580.693333 457.984V817.834667H436.906667v-359.850667H76.970667v-143.872H436.906667v-359.850667h143.872V314.112h359.850666V457.984z"  horiz-adv-x="1024" />

    
    <glyph glyph-name="icon-shangla" unicode="&#59209;" d="M128.966831 46.870279c83.231527-69.611823 128.630542-103.577011 210.516913-175.038423C626.506404 153.473892 626.506404 153.473892 1008.866995 525.241379c238.092611-220.269294 440.538588-423.724138 669.383251-635.586207l210.516913 187.481117-882.75862 818.863711c-20.17734-18.32775-39.009524-34.805911-57.16913-51.788506L128.966831 46.870279z"  horiz-adv-x="2017" />

    
    <glyph glyph-name="icon-shanchu" unicode="&#59210;" d="M257.152 89.664l-0.192 6.4c0-2.176 0.128-4.288 0.192-6.4z m357.056 547.328a40.064 40.064 0 0 1-40.064-40.064l0.384-502.144a40.064 40.064 0 0 1 80.064 0l-0.32 502.144a40.064 40.064 0 0 1-40.064 40.064z m279.04 118.912l-318.912-0.128-0.192 41.408a40.064 40.064 0 0 1-60.096 34.624 40.064 40.064 0 0 1-60.096-34.688l0.256-41.408-230.144-0.128a40.128 40.128 0 0 1-20.224 0H130.752a40.064 40.064 0 0 1 0-80.128h43.2l0.256-617.92h0.064v-42.496c0-44.288 35.84-80.128 80.128-80.128H294.4v-0.32l440.512 0.256v0.064h40c43.712 0 79.168 34.944 80.064 78.4l-0.32 583.36a40.064 40.064 0 1 1-80.064 0l0.256-509.312c-1.408-60.288-18.56-71.36-80-71.36l41.6-1.024-454.4-0.256 52.352 1.28c-62.72 0-79.36 11.52-80.064 75.328l0.512-76.672h-0.576L254.08 675.52l236.8 0.064a40.576 40.576 0 0 1 7.232 0h32.64a40.32 40.32 0 0 1 7.68 0l354.88 0.192a40.064 40.064 0 1 1 0 80.128z m-114.56-675.2l0.192-65.728h-2.944l2.752 65.728zM413.952 636.992a40.064 40.064 0 0 1-40.064-40.064l0.384-502.144a40.064 40.064 0 0 1 80.128 0l-0.384 502.144a40.064 40.064 0 0 1-40.064 40.064z"  horiz-adv-x="1024" />

    
    <glyph glyph-name="icon-shangcheng" unicode="&#59211;" d="M690.54829701 305.81028601c-7.68 6.58285701-21.06514299 7.24114301-28.67200002 0.512a228.352 228.352 0 0 0-149.650286-55.95428601 226.74285701 226.74285701 0 0 0-149.57714198 56.32 21.72342899 21.72342899 0 0 1-27.648 0c-58.95314299-51.2-141.38514301-70.656-223.817143-43.52-3.65714299 1.024-8.77714299 2.56-8.777143 3.584v-256.14628598c0-59.392 45.64114301-96.32914301 105.033143-96.32914303h610.15771399c59.46514301 0 109.20228601 36.93714301 109.20228601 96.32914303V266.97142900999995c-87.11314301-33.86514299-175.25028598-14.848-236.25142902 38.83885697z m-326.87542802-335.50628601a22.74742899 22.74742899 0 0 0-23.04-22.08914301 22.74742899 22.74742899 0 0 0-23.11314298 22.08914301V231.57028601000002c0 12.288 10.752 22.016 23.11314298 22.016 12.288 0 23.04-9.728 23.04-22.016v-261.26628601zM1018.52086899 522.09371399l-2.04799998 6.144-135.314286 276.11428601A88.21028601 88.21028601 0 0 1 802.74944 853.504H219.21572598c-33.20685701 0-64-19.01714299-78.40914297-49.152L7.68658301 527.65257099c-0.43885699-1.46285699-1.46285699-4.096-2.04800002-5.632a157.25714299 157.25714299 0 0 1-5.632-43.081142c0-83.52914301 53.83314299-156.74514301 134.290286-178.834286a185.05142901 185.05142901 0 0 1 197.705142 65.60914302 21.79657101 21.79657101 0 0 0 33.865143 0 184.61257101 184.61257101 0 0 1 293.01028601 0 21.43085699 21.43085699 0 0 0 33.86514299 0 185.19771399 185.19771399 0 0 1 182.34514302-69.70514302c83.60228601 15.872 153.16114301 104.59428601 149.650285 189.586286a250.44114301 250.44114301 0 0 1-6.217142 36.425142z"  horiz-adv-x="1025" />

    
    <glyph glyph-name="icon-shouqi" unicode="&#59212;" d="M756.499692 825.816615H51.515077a31.113846 31.113846 0 0 1-31.192615-31.113846V701.44c0-17.329231 13.942154-31.192615 31.113846-31.192615h705.063384A31.113846 31.113846 0 0 1 787.692308 701.44V794.702769a31.192615 31.192615 0 0 1-31.192616 31.113846M51.515077 286.641231H663.236923a31.192615 31.192615 0 0 1 31.113846 31.113846V411.017846a31.113846 31.113846 0 0 1-31.113846 31.113846H51.436308a31.113846 31.113846 0 0 1-31.113846-31.113846v-93.262769c0-17.171692 13.942154-31.113846 31.113846-31.113846m705.063384-228.115693H51.515077a31.113846 31.113846 0 0 1-31.192615-31.113846v-93.341538c0-17.171692 13.942154-31.113846 31.113846-31.113846h705.063384a31.113846 31.113846 0 0 1 31.192616 31.113846v93.341538a31.192615 31.192615 0 0 1-31.192616 31.113846m321.457231 525.469539l-258.678154-199.758769c-14.257231-10.712615-13.390769-30.089846 0-41.668923l258.678154-199.75877c14.414769-11.579077 41.747692-5.041231 41.747692 29.538462V554.614154c0 41.826462-27.332923 41.747692-41.747692 29.380923"  horiz-adv-x="1181" />

    
    <glyph glyph-name="icon-shouhuo" unicode="&#59213;" d="M903.168 78.848L1105.92 281.6l86.016-86.016-288.768-288.768-172.032 172.032 86.016 86.016 86.016-86.016z m-49.152 141.312l6.144 6.144v208.896l-307.2-178.176v-208.896l122.88 67.584v-135.168L491.52-123.904 0 158.72V613.376L491.52 896l491.52-282.624v-393.216h-129.024z m-479.232 208.896L491.52 361.472l344.064 196.608-116.736 67.584-344.064-196.608z m-122.88 73.728l344.064 196.608L491.52 760.832 147.456 564.224l104.448-61.44zM122.88 435.2v-208.896l307.2-178.176v208.896L122.88 435.2z"  horiz-adv-x="1228" />

    
    <glyph glyph-name="icon-tupian" unicode="&#59214;" d="M966.656 869.003636H154.065455A116.410182 116.410182 0 0 1 38.027636 752.919273v-730.344728A116.410182 116.410182 0 0 1 154.065455-93.556364h812.544a116.410182 116.410182 0 0 1 116.084363 116.084364V752.919273A116.410182 116.410182 0 0 1 966.656 869.003636zM294.818909 733.137455a106.030545 106.030545 0 1 0 0-212.107637 106.030545 106.030545 0 0 0 0 212.107637zM154.065455 80.570182l203.124363 269.498182 145.082182-174.126546 203.124364 261.166546 261.213091-356.538182H154.065455z"  horiz-adv-x="1117" />

    
    <glyph glyph-name="icon-shezhi" unicode="&#59215;" d="M1002.666667 451.413333a65.536 65.536 0 0 1-45.909334 48.042667l-16.042666 3.669333a159.317333 159.317333 0 0 0-109.226667 190.293334l4.949333 15.018666a65.962667 65.962667 0 0 1-18.773333 64s-15.018667 12.714667-57.514667 37.205334C717.653333 833.962667 699.306667 840.704 699.306667 840.704a65.536 65.536 0 0 1-64.682667-15.616l-11.178667-11.946667c-28.586667-27.050667-67.072-43.52-109.482666-43.52-42.496 0-81.322667 16.64-109.909334 43.861334L393.216 825.173333A65.450667 65.450667 0 0 1 328.533333 840.704s-18.517333-6.741333-61.013333-31.061333c-42.496-24.746667-57.344-37.546667-57.344-37.546667a65.365333 65.365333 0 0 1-18.773333-63.658667l4.608-15.274666A159.829333 159.829333 0 0 0 86.186667 502.954667l-15.445334-3.413334a65.536 65.536 0 0 1-45.994666-48.128s-3.413333-19.285333-3.413334-68.352c0-49.066667 3.413333-68.352 3.413334-68.352a65.194667 65.194667 0 0 1 45.994666-48.128l15.018667-3.413333a158.72 158.72 0 0 0 93.098667-73.386667c21.248-36.949333 26.282667-78.848 17.066666-117.248l-4.522666-14.933333a65.962667 65.962667 0 0 1 18.773333-63.914667s15.018667-12.8 57.514667-37.290666c42.496-24.490667 60.842667-31.061333 60.842666-31.061334a65.536 65.536 0 0 1 64.682667 15.616l10.666667 11.434667c28.757333 27.221333 67.413333 43.861333 110.08 43.861333s81.493333-16.810667 110.08-44.032l10.581333-11.434666a65.450667 65.450667 0 0 1 64.682667-15.616s18.602667 6.741333 61.013333 31.061333c42.496 24.576 57.429333 37.290667 57.429333 37.290667a65.706667 65.706667 0 0 1 18.773334 64l-4.693334 15.36a159.488 159.488 0 0 0 110.08 190.037333l15.018667 3.413333a65.536 65.536 0 0 1 45.994667 48.128s3.413333 19.370667 3.413333 68.352c-0.170667 49.322667-3.584 68.608-3.584 68.608zM514.048 186.624a196.266667 196.266667 0 1 0 0 392.618667c108.373333 0 196.352-87.893333 196.352-196.437334a196.522667 196.522667 0 0 0-196.352-196.181333z"  horiz-adv-x="1024" />

    
    <glyph glyph-name="icon-shouye" unicode="&#59216;" d="M86.24 453.73714313L480.59428531 845.55428531s71.86285687 36.61714313 122.05714313 0c50.19428531-36.54857156 398.26285688-395.86285687 398.26285687-395.86285687s12.27428531-100.32-121.71428531-99.01714313v-341.69142844s-34.21714312-62.19428531-107.04-61.02857156c0 0-61.37142844-1.16571469-103.06285687 63.77142938V348H412.77714312v-325.37142844s-32.50285687-86.81142844-116.57142843-74.60571469c0 0-73.30285687 12.20571469-93.6 66.44571469V348S72.86857156 356.15999999999997 86.24 453.73714313z m698.05714313 364.11428531l153.25714218-151.88571375s24.48-12.20571469 31.2 21.73714218c6.72 33.87428531 6.85714313 145.09714313 6.85714313 145.09714313S972.8 857.14285688 949.69142844 850.42285688L796.57142844 851.58857156s-24.41142844-5.21142844-12.20571375-33.73714312z"  horiz-adv-x="1097" />

    
    <glyph glyph-name="icon-tishi" unicode="&#59217;" d="M512 588.8a68.266667 68.266667 0 0 0 68.266667-68.266667v-580.266666a68.266667 68.266667 0 1 0-136.533334 0V520.533333a68.266667 68.266667 0 0 0 68.266667 68.266667z m0 102.4a102.4 102.4 0 1 0 0 204.8 102.4 102.4 0 0 0 0-204.8z"  horiz-adv-x="1024" />

    
    <glyph glyph-name="icon-xiala" unicode="&#59218;" d="M128.966831 721.129721C212.198358 790.741544 257.597373 824.538588 339.483744 896.168144A144223.422003 144223.422003 0 0 1 1008.866995 242.758621C1246.959606 463.027915 1449.405583 666.482759 1678.250246 878.344828l210.516913-187.481117-882.75862-818.863711c-20.17734 18.32775-39.009524 34.805911-57.16913 51.788506L128.966831 721.129721z"  horiz-adv-x="2017" />

    
    <glyph glyph-name="icon-xinzeng" unicode="&#59219;" d="M922.31818174 434.72727305h-362.04545479V794.85H464.13636347V434.72727305H102.09090869v-96.13636436h362.04545479v-364.00909043h96.13636347V338.59090869h362.04545479z"  horiz-adv-x="1024" />

    
    <glyph glyph-name="icon-xuanze" unicode="&#59220;" d="M0 753.493333L142.506667 896l735.402666-735.232L1613.141333 896l143.018667-142.506667L877.909333-124.586667z"  horiz-adv-x="1877" />

    
    <glyph glyph-name="icon-zhankai" unicode="&#59221;" d="M756.499692 825.816615H51.515077a31.113846 31.113846 0 0 1-31.192615-31.113846V701.44c0-17.329231 13.942154-31.192615 31.113846-31.192615h705.063384A31.113846 31.113846 0 0 1 787.692308 701.44V794.702769a31.192615 31.192615 0 0 1-31.192616 31.113846M51.515077 286.641231H663.236923a31.192615 31.192615 0 0 1 31.113846 31.113846V411.017846a31.113846 31.113846 0 0 1-31.113846 31.113846H51.436308a31.113846 31.113846 0 0 1-31.113846-31.113846v-93.262769c0-17.171692 13.942154-31.113846 31.113846-31.113846m705.063384-228.115693H51.515077a31.113846 31.113846 0 0 1-31.192615-31.113846v-93.341538c0-17.171692 13.942154-31.113846 31.113846-31.113846h705.063384a31.113846 31.113846 0 0 1 31.192616 31.113846v93.341538a31.192615 31.192615 0 0 1-31.192616 31.113846M850.707692 583.995077l258.678154-199.758769c14.257231-10.712615 13.390769-30.089846 0-41.668923L850.707692 142.808615c-14.414769-11.579077-41.747692-5.041231-41.747692 29.538462V554.614154c0 41.826462 27.332923 41.747692 41.747692 29.380923"  horiz-adv-x="1181" />

    
    <glyph glyph-name="icon-tuifei" unicode="&#59222;" d="M902.838857 847.030857c28.269714-30.902857 43.081143-68.754286 44.361143-113.664v-742.4c1.938286-27.355429-6.473143-51.931429-25.307429-73.654857-18.834286-21.76-41.618286-26.185143-68.315428-13.202286-17.554286 11.702857-32.365714 28.598857-44.361143 50.724572-12.068571 22.125714-28.123429 34.194286-48.310857 36.096h-12.690286c-26.075429-5.851429-44.909714-21.248-56.612571-46.299429-11.702857-25.051429-30.244571-40.448-55.588572-46.299428h-12.690285c-26.038857 6.473143-44.763429 22.747429-56.100572 48.786285-11.410286 26.075429-30.098286 40.704-56.064 43.885715h-5.851428c-26.075429-5.851429-44.909714-21.248-56.612572-46.299429-11.702857-25.051429-30.244571-40.448-55.588571-46.299429h-12.690286c-26.038857 6.473143-44.873143 22.747429-56.576 48.786286-11.702857 26.075429-30.281143 40.704-55.588571 43.885714h-6.875429c-26.038857-3.913143-45.641143-19.309714-58.989714-46.299428s-33.060571-42.459429-59.026286-46.299429c-22.125714 1.28-39.021714 12.068571-50.724571 32.182857-11.702857 20.187429-17.554286 40.301714-17.554286 60.489143V733.366857C76.361143 778.24 91.172571 816.128 119.442286 846.994286 147.748571 877.933714 182.710857 893.988571 224.365714 895.341714H797.988571c41.618286-1.353143 76.580571-17.408 104.850286-48.274285z m-93.184-302.921143c-3.949714 9.142857-12.068571 14.006857-24.429714 14.628572a44.690286 44.690286 0 0 1-29.257143 0 32.329143 32.329143 0 0 1-20.48-18.541715l-12.690286-31.268571a220.708571 220.708571 0 0 1-78.08 116.114286c-38.4 29.915429-82.907429 45.165714-133.632 45.897143-64.365714-1.316571-118.528-22.125714-162.413714-62.464-43.885714-40.301714-66.523429-92.342857-67.803429-156.123429 1.28-63.707429 22.893714-116.589714 64.877715-158.573714 41.947429-41.947429 95.085714-63.926857 159.451428-65.828572 21.504 0 42.788571 3.035429 63.963429 9.252572a210.102857 210.102857 0 0 1 59.977143 28.745143c9.801143 5.851429 15.945143 13.202286 18.578285 21.979428 2.56 8.777143 0.658286 18.066286-5.851428 27.830857-3.291429 6.509714-9.910857 10.934857-19.968 13.202286a61.696 61.696 0 0 1-29.769143-0.475429 107.081143 107.081143 0 0 0-38.034286-20.004571 162.011429 162.011429 0 0 0-42.934857-5.339429c-41.618286 1.28-76.8 16.128-105.398857 44.397715-28.635429 28.233143-43.264 63.195429-43.885714 104.886857 0.621714 41.618286 15.250286 76.726857 43.885714 105.398857 28.598857 28.598857 63.707429 43.593143 105.398857 44.873143 38.4-1.28 71.204571-13.604571 98.523429-37.083429a148.041143 148.041143 0 0 0 50.761143-87.771428l-42.971429 12.690285a42.532571 42.532571 0 0 1-30.244571-3.437714 36.864 36.864 0 0 1-19.492572-21.942857c-3.291429-9.801143-2.413714-18.578286 2.413714-26.331429 4.864-7.789714 12.214857-13.641143 21.979429-17.554285l124.891429-49.737143h12.617142a33.536 33.536 0 0 1 17.554286 8.265143c5.851429 4.827429 10.422857 10.532571 13.641143 17.042285l49.737143 118.016c3.364571 10.349714 2.998857 20.114286-0.914286 29.257143z"  horiz-adv-x="1024" />

    
    <glyph glyph-name="icon-zhanghao" unicode="&#59223;" d="M891.318857 59.977143h-139.849143c-30.72 119.954286-133.12 213.211429-259.876571 233.691428 30.134857 21.942857 55.588571 49.810286 74.313143 81.773715 8.265143 0.804571 16.530286 1.243429 24.795428 1.243428h175.323429c137.801143 0 250.514286-109.641143 250.514286-243.565714 0-40.228571-83.894857-73.142857-125.220572-73.142857zM678.4 437.686857c-29.110857 0-56.832 6.070857-81.773714 16.896a265.289143 265.289143 0 0 1-98.230857 263.753143A200.996571 200.996571 0 0 0 678.326857 827.465143c110.738286 0 200.411429-87.259429 200.411429-194.925714 0-107.593143-89.673143-194.852571-200.411429-194.852572zM346.697143 318.317714C236.032 318.317714 146.285714 405.504 146.285714 513.170286 146.285714 620.763429 236.032 708.022857 346.697143 708.022857c110.665143 0 200.411429-87.259429 200.411428-194.852571 0-107.666286-89.746286-194.852571-200.411428-194.852572z m87.625143-61.074285c137.801143 0 250.514286-109.641143 250.514285-243.565715 0-40.228571-83.894857-73.142857-125.220571-73.142857H133.778286c-41.325714 0-125.220571 32.914286-125.220572 73.142857 0 133.924571 112.713143 243.565714 250.514286 243.565715h175.323429z"  horiz-adv-x="1024" />

    
    <glyph glyph-name="icon-zhengque" unicode="&#59224;" d="M1406.3104 727.2448L584.3968-104.6016l-24.064-22.6304-24.064 22.6304L27.3408 410.5216 193.1776 578.56l367.104-371.5072L1240.32 895.232z"  horiz-adv-x="1433" />

    
    <glyph glyph-name="icon-weixinzhifu" unicode="&#59225;" d="M419.328 249.344c-5.184-2.848-10.944-4-17.28-4-14.4 0-27.072 8-33.408 19.456l-2.304 5.696-104.832 228.16a19.104 19.104 0 0 0 17.28 26.88c4.032 0 8.064-1.152 11.52-4.032l123.264-86.912c9.216-5.696 19.584-9.152 31.68-9.152 6.912 0 13.824 1.152 19.584 3.456l581.76 257.28C942.336 807.968 770.688 888 576 888 258.048 888 0 674.752 0 411.744c0-143.52 77.76-272.736 199.296-360.224 9.792-6.848 16.128-18.304 16.128-30.88 0-4-1.152-8-2.304-12-9.792-36.032-25.344-93.184-25.92-96.064-1.152-4.544-2.88-9.12-2.88-13.696 0-10.304 8.64-18.88 19.008-18.88 4.032 0 7.488 1.728 10.944 3.424l126.72 70.912a57.28 57.28 0 0 0 30.528 8.576c5.76 0 11.52-1.152 16.704-2.304 58.752-16.576 122.112-26.304 187.776-26.304 317.952 0 576 213.28 576 476.288 0 79.456-23.616 154.944-65.664 220.704L423.36 251.648l-4.032-2.304z"  horiz-adv-x="1152" />

    
    <glyph glyph-name="icon-zhifubao" unicode="&#59226;" d="M1023.007521 43.327839v-6.143994a164.191846 164.191846 0 0 0-164.703846-164.159846H163.680327A164.191846 164.191846 0 0 0 0.00048 37.151845V731.839194A164.191846 164.191846 0 0 0 163.680327 895.99904h694.623348a164.159846 164.159846 0 0 0 164.703846-164.191846v-688.479355zM276.224221 108.799778c-159.58385 0-204.607808 125.311883-126.879881 194.879817a200.031812 200.031812 0 0 0 102.303904 36.831966c94.111912 10.23999 181.59983-26.591975 285.951732-77.759927-75.19993-94.623911-167.263843-153.439856-259.359757-153.439856l-2.015998-0.512z m566.207469 145.279864c-40.895962 14.303987-96.15991 34.783967-157.535852 57.279946a885.82317 885.82317 0 0 1 85.919919 215.359798h-204.575808V598.783319h247.039769V640.25528H568.319947V760.447167h-102.303904a17.919983 17.919983 0 0 1-16.383985-17.919983v-102.271904H200.512292v-40.927962h249.087766v-72.127932H245.02425v-40.415962h400.479625a722.751322 722.751322 0 0 0-57.279946-141.663868c-128.895879 42.94396-267.519749 77.759927-358.047665 55.231949a214.335799 214.335799 0 0 1-112.543894-63.423941c-96.15991-116.607891-26.559975-295.135723 175.967835-295.135723a433.247594 433.247594 0 0 1 326.847693 178.527832c135.551873-65.983938 402.559623-176.991834 402.559623-176.991834v157.535853a1337.278746 1337.278746 0 0 0-181.08783 53.727949l0.511999-0.511999z"  horiz-adv-x="1024" />

    
    <glyph glyph-name="icon-zhanghu" unicode="&#59227;" d="M1016.28733153 754.45149337H347.18249511C271.60904215 754.45149337 210.05813882 695.7994831999999 210.05813882 623.73166747v-68.96667481h943.28613281V623.73166747c0 72.06781575-61.48348715 130.71982664-137.0569401 130.7198259zM210.05813882 145.54923906c0-72.06781575 61.55090333-130.65241046 137.12435629-130.65241047h669.10483642c75.57345297 0 137.05694011 58.6520109 137.0569401 130.65241047V421.14627359H210.12555499v-275.59703453z m569.19416916 70.78690922h196.1808642a35.59570313 35.59570313 0 1 0 1e-8-71.19140625h-196.18086421a35.59570313 35.59570313 0 1 0 0 71.19140625z"  horiz-adv-x="1396" />

    
    <glyph glyph-name="icon-zhuanzhang" unicode="&#59228;" d="M678.570667 741.489778A390.940444 390.940444 0 0 1 263.964444 678.684444L199.68 752.526222A489.472 489.472 0 0 0 716.8 831.715556L744.277333 896l80.213334-161.678222-172.032-54.613334 26.168889 61.781334zM371.655111 88.234667l-26.225778-61.724445a390.997333 390.997333 0 0 1 414.606223 62.862222l64.341333-73.898666A489.528889 489.528889 0 0 0 307.2-63.715556L279.893333-128l-80.213333 161.678222 172.032 54.613334zM154.510222 551.480889a391.054222 391.054222 0 0 1 62.805334-414.606222l-73.841778-64.341334A489.585778 489.585778 0 0 0 64.284444 589.767111L0 617.073778l161.678222 80.213333 54.613334-171.975111-61.781334 26.168889z m805.205334-371.484445l64.284444-27.192888-161.678222-80.270223-54.613334 172.032 61.781334-26.168889a391.054222 391.054222 0 0 1-62.805334 414.606223l73.841778 64.284444a489.472 489.472 0 0 0 79.189334-517.233778zM332.8 588.8c-8.078222 19.968-1.820444 35.84 18.716444 47.559111 20.48 11.662222 37.831111 7.054222 51.996445-13.824l103.310222-161.962667 106.382222 161.962667c12.686222 20.024889 29.184 25.486222 49.607111 16.384 20.423111-9.102222 26.396444-25.827556 17.976889-50.119111l-105.244444-160.256h87.267555c8.931556-7.224889 13.368889-16.497778 13.368889-27.875556s-4.437333-20.650667-13.368889-27.761777l-113.095111-0.682667v-45.852444h113.095111c9.102222-6.997333 13.539556-16.213333 13.368889-27.818667a34.417778 34.417778 0 0 0-13.368889-27.818667H549.717333v-117.134222c2.218667-33.507556-11.776-50.517333-41.870222-51.2-30.151111-0.682667-44.771556 16.384-43.975111 51.2v117.191111H351.459556a29.240889 29.240889 0 0 0-17.408 27.761778c0 12.743111 5.802667 21.959111 17.408 27.818667h112.412444l-0.682667 46.592H351.573333c-11.264 7.224889-17.066667 16.497778-17.464889 27.704888-0.455111 11.207111 5.347556 20.48 17.408 27.875556H438.044444L332.8 588.8z"  horiz-adv-x="1024" />

    


  </font>
</defs>
</svg>
